<svg viewBox="0 0 1107 361" fill="none" xmlns="http://www.w3.org/2000/svg"><g filter="url(#a)"><path fill-rule="evenodd" clip-rule="evenodd" d="m137.209 113.604-.8-.017c-3.26-.066-6.701-.101-10.32-.106l-.88-.001v8.8c2.134.213 5.867.32 11.2.32 6.719 0 12.959-.144 18.72-.431a265.67 265.67 0 0 0 8.16-.529l3.84-.32v47.84a61.3 61.3 0 0 1-2.692.873c-10.151 3.045-23.974 4.567-41.468 4.567-18.986 0-33.546-4.853-43.68-14.56-10.026-9.707-15.04-24.107-15.04-43.2 0-19.2 4.96-33.333 14.88-42.4 9.92-9.067 24.694-13.6 44.32-13.6 8.214 0 15.947.48 23.2 1.44 7.36.96 12.587 1.92 15.68 2.88l4.8 1.44v49.28l-.46-.078a111.655 111.655 0 0 0-3.899-.571l-.015-.002a161.774 161.774 0 0 0-7.626-.778c-5.189-.416-11.162-.698-17.92-.847zM176.437 173h71.36v-41.12h-16.32V62.44h-55.04V173zm-12-119.72v-2.84h79.04v69.44h5.288c.161-.922.324-1.845.491-2.769 3.321-18.534 6.439-33.06 9.374-43.348l6.408-23.323h93.869l2.595 8.493c1.237 4.049 2.774 9.546 4.601 16.426.425 1.598.887 3.49 1.385 5.67 2.974-7.878 8.222-14.636 15.671-19.991 12.026-8.754 28.546-12.198 47.674-12.198 9.242 0 17.991.617 26.223 1.887 7.39 1.029 13.668 2.212 18.162 3.721V50.44h193.674c19.913 0 36.944 3.189 48.936 11.592.55.38 1.086.771 1.609 1.172V50.44h222.716v13.633a49.842 49.842 0 0 1 3.818-3.035c12.026-8.754 28.546-12.198 47.675-12.198 9.244 0 17.994.617 26.224 1.887 7.72 1.075 14.22 2.318 18.75 3.924l.06.02 12.73 4.668v63.815c2.4 5.196 3.52 11.034 3.52 17.206 0 14.779-6.34 26.974-18.57 35.228-11.82 7.97-28.37 11.012-47.674 11.012-10.981 0-20.908-.608-29.719-1.884l-.077-.011-.076-.012c-7.961-1.257-14.806-2.655-19.124-4.481l-.1-.042-11.544-5.132V121h-5.413v64h-83.84v-64h-4.316v64h-115.04v-42.121c-8.476 6.231-19.892 9.306-32.58 10.544l-.017.002c-2.79.268-5.788.471-8.988.612V185H475.218v-10.593a49.39 49.39 0 0 1-1.673 1.181c-11.814 7.97-28.369 11.012-47.672 11.012-10.98 0-20.908-.608-29.719-1.884l-.076-.011-.077-.012c-5.121-.809-9.781-1.676-13.604-2.678l.219 2.985H164.437v-2.52c-11.269 2.866-25.237 4.12-41.468 4.12-20.965 0-38.92-5.384-51.98-17.894l-.023-.022-.023-.022c-13.12-12.7-18.694-30.71-18.694-51.822 0-21.094 5.464-39.083 18.785-51.258 12.963-11.848 31.152-16.742 52.415-16.742 8.673 0 16.933.506 24.763 1.542 6.577.858 12.146 1.793 16.225 2.898zM304.906 173l.96-17.12h9.76l.96 17.12h53.12a457.008 457.008 0 0 0-1.04-12 514.9 514.9 0 0 0-3.433-26.974 589.229 589.229 0 0 0-2.727-16.226c-3.52-19.413-6.187-32.533-8-39.36-1.814-6.827-3.307-12.16-4.48-16h-75.84l-4 14.56c-2.774 9.707-5.814 23.787-9.12 42.24a490.067 490.067 0 0 0-2.112 12.64 461.386 461.386 0 0 0-3.547 29.12 429.547 429.547 0 0 0-.901 12h50.4zm72.327-5.76 4.32 1.92c2.773 1.173 8.213 2.4 16.32 3.68 8.107 1.173 17.44 1.76 28 1.76 18.453 0 32.107-2.987 40.96-8.96 3.478-2.347 6.273-5.072 8.385-8.176 3.263-4.797 4.895-10.499 4.895-17.104 0-5.271-1.027-9.767-3.082-13.487a20.814 20.814 0 0 0-4.146-5.275 22.549 22.549 0 0 0-1.892-1.558c-6.08-4.48-16.053-7.253-29.92-8.32v-4.16h.32c4.137.008 8.03.166 11.68.474 4.156.351 7.996.897 11.52 1.637 3.936.827 7.477 1.896 10.625 3.209a44.606 44.606 0 0 1 1.375.6V67.72l-4.8-1.76c-3.307-1.173-8.8-2.293-16.48-3.36-7.573-1.173-15.733-1.76-24.48-1.76-18.027 0-31.573 3.307-40.64 9.92-9.067 6.507-13.6 15.467-13.6 26.88 0 7.63 1.478 13.735 4.434 18.314.252.39.514.769.788 1.137a20.078 20.078 0 0 0 4.698 4.549c2.503 1.736 5.464 3.212 8.883 4.428l.016.006c5.613 1.994 12.46 3.29 20.541 3.886v3.84h-.283a136.353 136.353 0 0 1-11.717-.511 114.364 114.364 0 0 1-9.6-1.249c-1.9-.337-3.607-.657-5.12-.959-3.752-.748-6.312-1.389-7.68-1.921a21.414 21.414 0 0 1-.201-.078c-1.82-.71-3.193-1.27-4.119-1.682v39.84zM487.218 173h52.48v-37.28h9.28V173h52.64V62.44h-52.64v49.92h-9.28V62.44h-52.48V173zm178.634-30.72c7.68 0 14.293-.267 19.84-.8 13.12-1.28 22.613-4.533 28.48-9.76a27.16 27.16 0 0 0 5.265-6.378c3.316-5.545 4.975-12.592 4.975-21.142 0-9.345-1.659-16.993-4.975-22.942-2.135-3.83-4.957-6.955-8.465-9.378-8.96-6.293-22.987-9.44-42.08-9.44h-58.08V173h55.04v-30.72zM731.437 173h91.04v-41.12h-36v-6.4h34.56V115.4h-34.56V109h34.56V62.44h-89.6V173zm100.156-64h19.2v64h59.84v-64h19.52V62.44h-98.56V109zm108.453 58.24 4.32 1.92c2.773 1.173 8.213 2.4 16.32 3.68 8.106 1.173 17.44 1.76 28 1.76 18.454 0 32.104-2.987 40.964-8.96 8.85-5.973 13.28-14.4 13.28-25.28 0-5.271-1.03-9.767-3.09-13.487a20.762 20.762 0 0 0-4.14-5.275c-.6-.547-1.23-1.066-1.89-1.558-6.08-4.48-16.06-7.253-29.92-8.32v-4.16h.32c4.13.008 8.03.166 11.68.474 4.15.351 7.99.897 11.52 1.637 4.27.897 8.08 2.081 11.42 3.551.19.085.39.171.58.258V67.72l-4.8-1.76c-3.31-1.173-8.8-2.293-16.48-3.36-7.58-1.173-15.74-1.76-24.484-1.76-18.027 0-31.574 3.307-40.641 9.92-4.991 3.582-8.608 7.908-10.852 12.977-1.832 4.139-2.747 8.773-2.747 13.903 0 4.263.461 8.049 1.383 11.36a27.713 27.713 0 0 0 1.364 3.824 23.001 23.001 0 0 0 1.686 3.13c.252.39.515.77.788 1.137a20.084 20.084 0 0 0 4.699 4.549c2.502 1.736 5.463 3.212 8.882 4.428l.016.006c5.613 1.994 12.46 3.29 20.542 3.886v3.84h-.284a136.348 136.348 0 0 1-11.716-.511 114.31 114.31 0 0 1-9.6-1.249 242.289 242.289 0 0 1-5.12-.959c-3.752-.748-6.312-1.389-7.68-1.921a43.388 43.388 0 0 1-.202-.078c-1.819-.71-3.192-1.27-4.118-1.682v39.84zm-274.194-41.76h4.64c1.28 0 2.346-.427 3.2-1.28.853-.853 1.28-1.973 1.28-3.36v-7.36c0-1.387-.427-2.453-1.28-3.2-.854-.853-1.92-1.28-3.2-1.28h-4.64v16.48zm-534.627 154.4h6.4v-11.04l37.76-1.44V321c-1.648.139-3.378.267-5.191.386-10.74.703-24.37 1.054-40.889 1.054-19.2 0-33.867-4.853-44-14.56-10.027-9.707-15.04-24.107-15.04-43.2 0-19.093 4.96-33.12 14.88-42.08 9.92-8.96 24.693-13.44 44.32-13.44 7.787 0 15.413.373 22.88 1.12 7.467.747 13.013 1.493 16.64 2.24l5.28 1.12v46.72h-43.04v19.52zm56.16-4.397A464.915 464.915 0 0 0 183.141 309a429.547 429.547 0 0 0-.901 12h50.4l.96-17.12h9.76l.96 17.12h53.12a453.55 453.55 0 0 0-1.04-12c-1.004-10.062-2.361-20.41-4.073-31.045a591.82 591.82 0 0 0-2.087-12.155c-3.52-19.413-6.187-32.533-8-39.36-1.813-6.827-3.307-12.16-4.48-16h-75.84l-4 14.56c-2.773 9.707-5.813 23.787-9.12 42.24a495.57 495.57 0 0 0-1.415 8.243zm-1.12-53.369v-18.196l-14.825-3.144-.035-.008c-4.261-.877-10.315-1.671-17.866-2.426a241.79 241.79 0 0 0-24.074-1.18c-21.232 0-39.4 4.825-52.364 16.535-13.364 12.071-18.836 29.986-18.836 50.985 0 21.112 5.575 39.122 18.693 51.822l.023.022.023.022c13.083 12.532 31.166 17.894 52.301 17.894 19.173 0 34.742-.468 46.578-1.44h369.453v-65.12h-1.44v-69.44H369.258l-.657 1.985-.687-1.985h-75.587v19.306c-1.18-4.321-2.211-7.933-3.091-10.813l-2.595-8.493h-93.869l-6.408 23.323-.099.351zM304.327 321h55.04v-40l7.36 18.56h4.16l7.04-18.56v40h55.2V210.44h-55.2l-7.04 21.28h-4.16l-7.36-21.28h-55.04V321zm137.969-110.56V321h91.04v-41.12h-36v-6.4h34.56V263.4h-34.56V257h34.56v-46.56h-89.6zM576.234 333V198.44h70.08c19.912 0 36.944 3.189 48.936 11.591a39.058 39.058 0 0 1 10.02 10.028l5.94-21.619h93.868l2.596 8.493c1.237 4.049 2.774 9.546 4.601 16.426.425 1.598.886 3.49 1.385 5.669 2.974-7.877 8.222-14.635 15.672-19.991 12.025-8.753 28.545-12.197 47.673-12.197 9.242 0 17.991.617 26.223 1.887 7.718 1.075 14.223 2.318 18.75 3.924l.059.021 12.728 4.667v5.991a48.8 48.8 0 0 1 5.192-4.293c12.025-8.753 28.545-12.197 47.673-12.197 9.242 0 17.99.617 26.22 1.887 7.72 1.075 14.23 2.318 18.75 3.924l.06.021 12.73 4.667v63.815c2.41 5.196 3.52 11.034 3.52 17.206 0 14.779-6.33 26.974-18.57 35.228-11.81 7.97-28.37 11.012-47.67 11.012-10.98 0-20.908-.608-29.719-1.884l-.076-.011-.077-.012c-7.96-1.257-14.806-2.655-19.124-4.481l-.099-.042-11.545-5.132v-1.112a47.85 47.85 0 0 1-2.314 1.662c-11.813 7.97-28.368 11.012-47.671 11.012-10.98 0-20.908-.608-29.719-1.884l-.076-.011-.077-.012c-5.121-.809-9.781-1.676-13.604-2.678l.219 2.985H687.923l.777-12.73a451.417 451.417 0 0 1 2.328-25.811c-7.59 3.883-16.777 5.991-26.749 6.964l-.008.001-.009.001c-2.79.268-5.788.471-8.988.612V333h-79.04zm67.04-42.72c7.68 0 14.293-.267 19.84-.8 13.12-1.28 22.613-4.533 28.48-9.76a26.999 26.999 0 0 0 1.664-1.615c3.108-3.286 5.371-7.337 6.789-12.153l.002-.008c1.19-4.042 1.785-8.624 1.785-13.744 0-4.801-.438-9.153-1.313-13.058-1.925-8.588-5.968-15.009-12.127-19.262-8.96-6.293-22.987-9.44-42.08-9.44h-58.08V321h55.04v-30.72zm61.346-7.027a493.826 493.826 0 0 1 2.617-16.013 834.333 834.333 0 0 1 2.828-15.04 518.41 518.41 0 0 1 2.711-12.897c1.24-5.517 2.433-10.285 3.581-14.303l4-14.56h75.84c1.174 3.84 2.667 9.173 4.48 16 1.814 6.827 4.48 19.947 8 39.36 1 5.482 1.909 10.891 2.728 16.227A514.73 514.73 0 0 1 814.838 309a457.008 457.008 0 0 1 1.039 12h-53.12l-.96-17.12h-9.76l-.96 17.12h-50.4c.243-3.978.543-7.978.902-12a457.94 457.94 0 0 1 3.041-25.747zm-11.81-2.168 6.766 7.595-.001.001m123.83 26.559 4.32 1.92c2.773 1.173 8.213 2.4 16.32 3.68 8.107 1.173 17.44 1.76 28 1.76 18.453 0 32.107-2.987 40.96-8.96 3.842-2.592 6.85-5.646 9.025-9.163 2.837-4.586 4.255-9.958 4.255-16.117 0-5.024-.934-9.344-2.801-12.96a21.03 21.03 0 0 0-1.454-2.409 20.867 20.867 0 0 0-2.973-3.393 22.549 22.549 0 0 0-1.892-1.558c-6.08-4.48-16.053-7.253-29.92-8.32v-4.16h.32c4.137.008 8.03.166 11.68.474 4.156.351 7.996.897 11.52 1.637 4.204.883 7.959 2.044 11.265 3.481l.159.07c.193.085.385.171.576.258v-45.76l-4.8-1.76c-3.307-1.173-8.8-2.293-16.48-3.36-7.573-1.173-15.733-1.76-24.48-1.76-18.027 0-31.573 3.307-40.64 9.92-9.067 6.507-13.6 15.467-13.6 26.88 0 7.63 1.478 13.735 4.434 18.314a20.158 20.158 0 0 0 5.486 5.686c2.503 1.736 5.463 3.212 8.883 4.428l.015.006c5.614 1.994 12.461 3.29 20.542 3.886v3.84h-.283a136.353 136.353 0 0 1-11.717-.511 114.364 114.364 0 0 1-9.6-1.249 243.497 243.497 0 0 1-5.12-.959c-3.752-.748-6.312-1.389-7.68-1.921a21.414 21.414 0 0 1-.201-.078c-1.82-.71-3.193-1.27-4.119-1.682v39.84zM934.03 275.4c.22.098.465.204.735.318.553.235 1.211.504 1.975.809a258.121 258.121 0 0 0 1.61.633c1.368.532 3.928 1.173 7.68 1.921 1.513.302 3.219.622 5.12.959 3.098.541 6.298.957 9.6 1.249 3.772.333 7.678.503 11.717.511h.283v-3.84c-8.081-.596-14.928-1.892-20.542-3.886l-.015-.006c-3.42-1.216-6.38-2.692-8.883-4.428a20.158 20.158 0 0 1-5.486-5.686c-1.31-2.029-2.33-4.357-3.059-6.986-.917-3.303-1.375-7.079-1.375-11.328 0-3.629.458-7.01 1.375-10.143 1.966-6.72 6.041-12.299 12.225-16.737 9.067-6.613 22.613-9.92 40.64-9.92 8.747 0 16.91.587 24.48 1.76 7.68 1.067 13.17 2.187 16.48 3.36l4.8 1.76v45.76c-.19-.087-.38-.173-.58-.258-3.34-1.47-7.15-2.654-11.42-3.551-3.52-.74-7.36-1.286-11.52-1.637-3.65-.308-7.54-.466-11.68-.474h-.32v4.16c13.87 1.067 23.84 3.84 29.92 8.32.67.492 1.3 1.011 1.89 1.558a20.783 20.783 0 0 1 4.15 5.275c2.05 3.72 3.08 8.216 3.08 13.487 0 10.88-4.43 19.307-13.28 25.28-8.85 5.973-22.51 8.96-40.96 8.96-10.56 0-19.893-.587-28-1.76-8.107-1.28-13.547-2.507-16.32-3.68l-4.32-1.92V275.4zm-290.756-1.92h4.64c1.28 0 2.346-.427 3.2-1.28.853-.853 1.28-1.973 1.28-3.36v-7.36c0-1.387-.427-2.453-1.28-3.2-.854-.853-1.92-1.28-3.2-1.28h-4.64v16.48zM306.986 141.16h7.52l-1.12-24.96h-5.12l-1.28 24.96zm-72.266 148h7.52l-1.12-24.96H236l-1.28 24.96zm518.437 0h7.52l-1.12-24.96h-5.12l-1.28 24.96z" fill="url(#b)"/></g><defs><radialGradient id="b" cx="0" cy="0" r="1" gradientUnits="userSpaceOnUse" gradientTransform="matrix(0 196.368 -689.019 0 553.587 138.232)"><stop stop-color="#7500FF"/><stop offset="1" stop-color="#FFC700"/></radialGradient><filter id="a" x=".249" y=".84" width="1106.68" height="389.76" filterUnits="userSpaceOnUse" color-interpolation-filters="sRGB"><feFlood flood-opacity="0" result="BackgroundImageFix"/><feColorMatrix in="SourceAlpha" values="0 0 0 0 0 0 0 0 0 0 0 0 0 0 0 0 0 0 127 0" result="hardAlpha"/><feOffset dy="4"/><feGaussianBlur stdDeviation="26"/><feComposite in2="hardAlpha" operator="out"/><feColorMatrix values="0 0 0 0 0.729417 0 0 0 0 0.154427 0 0 0 0 1 0 0 0 0.59 0"/><feBlend in2="BackgroundImageFix" result="effect1_dropShadow_64_866"/><feBlend in="SourceGraphic" in2="effect1_dropShadow_64_866" result="shape"/></filter></defs></svg>