<?xml version="1.0" encoding="utf-8"?>
<!-- Generator: Adobe Illustrator 26.0.1, SVG Export Plug-In . SVG Version: 6.00 Build 0)  -->
<svg version="1.1" id="Layer_1" xmlns="http://www.w3.org/2000/svg" xmlns:xlink="http://www.w3.org/1999/xlink" x="0px" y="0px"
	 viewBox="0 0 282.6 85.7" style="enable-background:new 0 0 282.6 85.7;" xml:space="preserve">
<style type="text/css">
	.st0{fill:#FFFFFF;}
	.st1{fill:#8F8CF9;}
</style>
<g>
	<g>
		<path class="st0" d="M21.5,34.6c0,0.4,0,0.7,0.1,1c0.1,0.7,0.2,1.5,0.2,2.2v11.4c0,20.1,16.3,36.4,36.4,36.4h166.8
			c20.1,0,36.4-16.3,36.4-36.4V33.2c0-0.6,0.1-1.3,0.1-1.9c0-17,10.4-31.3,21.1-31.3h-21.3h-3.7H25.1h-3.4H0.1
			C11.9,0,21.5,17.3,21.5,34.6"/>
	</g>
	<g>
		<path class="st1" d="M82.5,32.5c0.3,0,0.5,0.3,0.5,0.5v11.5c0,0.3-0.2,0.6-0.4,0.8c-2.2,1.7-5.5,2.6-9,2.3
			c-7.8-0.7-13-6.9-13-14.7c0-7.8,5.2-12,13-11.3c2.7,0.3,5.5,1.2,7.6,2.6c0.3,0.2,0.4,0.5,0.3,0.7c-0.6,1.7-1.2,3.5-1.8,5.2
			c-0.1,0.2-0.4,0.3-0.7,0.2c-1.5-0.9-3.4-1.5-5.2-1.7c-3.3-0.3-5.6,1.8-5.6,5.3c0,3.6,2.2,6.3,5.6,6.6c1.3,0.1,2.2-0.1,2.6-0.5
			v-2.1c-1.1-0.1-2.2-0.2-3.3-0.3c-0.3,0-0.5-0.2-0.6-0.5c-0.2-1.7-0.3-3.4-0.5-5c0-0.4,0.2-0.6,0.6-0.6
			C76,32.1,79.3,32.3,82.5,32.5 M76.8,39.7v0.1V39.7z"/>
	</g>
	<g>
		<path class="st1" d="M108.7,47.1c0.1,0.2,0,0.5-0.3,0.5c-2.4,0.1-4.8,0.2-7.1,0.3c-0.3,0-0.6-0.2-0.8-0.5
			c-0.4-1.3-0.7-2.5-1.1-3.8c-2.3,0-4.5,0.1-6.8,0.1c-0.4,1.3-0.7,2.5-1.1,3.8C91.3,47.8,91,48,90.7,48c-2.4,0-4.8-0.1-7.1-0.2
			c-0.3,0-0.4-0.3-0.3-0.5c2.7-7.9,5.4-15.8,8.2-23.8c0.1-0.2,0.5-0.5,0.9-0.5c2.5,0,4.9,0,7.4-0.1c0.4,0,0.8,0.2,0.9,0.5
			C103.2,31.4,105.9,39.3,108.7,47.1 M95.9,31.7c-0.6,2.3-1.3,4.6-2,6.9c1.3,0,2.6,0,3.9,0C97.2,36.2,96.6,34,95.9,31.7"/>
	</g>
	<g>
		<path class="st1" d="M129.6,45.6c0.2,0.3-0.1,0.6-0.4,0.6c-2.6,0.2-5.2,0.4-7.7,0.6c-0.4,0-0.7-0.2-0.8-0.5
			c-1.3-2.5-2.5-5.1-3.8-7.6c-0.1,0-0.3,0-0.4,0v7.9c0,0.2-0.3,0.5-0.6,0.5c-2.1,0.1-4.2,0.3-6.4,0.4c-0.3,0-0.5-0.2-0.5-0.5V23.2
			c0-0.3,0.2-0.6,0.5-0.6c3.2-0.2,6.4-0.4,9.5-0.6c5.6-0.4,9.2,2.5,9.2,7.5c0,2.9-1.7,5.9-4.4,7.2C125.8,39.7,127.7,42.6,129.6,45.6
			 M118.6,32.4c1.2-0.1,2.1-0.9,2.1-2.1c0-1.2-0.8-1.8-2.1-1.8c-0.7,0-1.4,0.1-2.1,0.1v3.8C117.2,32.5,117.9,32.5,118.6,32.4"/>
	</g>
	<g>
		<path class="st1" d="M142,20.2c4.7-0.4,7.9,2.2,7.9,6.4c0,2.6-1.3,4.6-3.2,5.4c2.3,0.4,3.8,2.4,3.8,5.4c0,4.2-3.1,7.3-7.8,7.7
			c-3.8,0.3-7.6,0.7-11.4,1c-0.3,0-0.5-0.2-0.5-0.5c0-8,0-15.9,0-23.9c0-0.3,0.2-0.6,0.5-0.6C134.8,20.8,138.4,20.5,142,20.2
			 M140.3,30.1c1.1-0.1,1.8-0.8,1.8-1.8c0-1-0.7-1.6-1.8-1.5c-0.8,0.1-1.5,0.1-2.3,0.2v3.3C138.8,30.2,139.6,30.2,140.3,30.1
			 M141,38.7c1-0.1,1.8-0.8,1.8-1.9c0-1-0.7-1.7-1.8-1.6c-1,0.1-1.9,0.2-2.9,0.2V39C139,38.9,140,38.8,141,38.7"/>
	</g>
	<g>
		<path class="st1" d="M174.9,42.5c0.1,0.2,0,0.5-0.3,0.5c-2.4,0.1-4.8,0.2-7.1,0.3c-0.3,0-0.6-0.2-0.8-0.4
			c-0.4-1.2-0.7-2.5-1.1-3.7c-2.3,0.1-4.5,0.3-6.8,0.4c-0.4,1.3-0.7,2.6-1.1,3.9c-0.1,0.3-0.4,0.5-0.8,0.5c-2.4,0.2-4.8,0.3-7.1,0.5
			c-0.3,0-0.4-0.2-0.3-0.4c2.7-8.2,5.4-16.4,8.2-24.6c0.1-0.2,0.5-0.5,0.9-0.5c2.5-0.2,4.9-0.3,7.4-0.4c0.4,0,0.8,0.2,0.9,0.4
			C169.5,26.7,172.2,34.6,174.9,42.5 M162.2,27.3c-0.7,2.3-1.3,4.7-2,7c1.3-0.1,2.6-0.2,3.9-0.2C163.5,31.8,162.9,29.5,162.2,27.3"
			/>
	</g>
	<g>
		<path class="st1" d="M195.1,27.9c0.3,0,0.5,0.3,0.5,0.5c0,3.8,0,7.7,0,11.5c0,0.3-0.2,0.6-0.4,0.8c-2.2,1.7-5.5,2.7-9,2.6
			c-7.8-0.1-13-5-13-12.9c0-7.8,5.2-13.2,13-13.1c2.7,0,5.5,0.9,7.6,2.3c0.3,0.2,0.4,0.5,0.3,0.7c-0.6,1.7-1.2,3.5-1.8,5.2
			c-0.1,0.2-0.4,0.3-0.7,0.3c-1.5-0.8-3.4-1.4-5.2-1.4c-3.3,0-5.6,2.4-5.6,5.9c0,3.6,2.2,6,5.6,6c1.3,0,2.2-0.2,2.6-0.6v-2.1
			c-1.1,0-2.2,0-3.3-0.1c-0.3,0-0.5-0.2-0.6-0.4c-0.2-1.7-0.3-3.3-0.5-5c0-0.4,0.2-0.6,0.6-0.6C188.6,27.7,191.9,27.8,195.1,27.9
			 M189.3,35.2v0.1V35.2z"/>
	</g>
	<g>
		<path class="st1" d="M215,38.8c0.3,0.1,0.5,0.3,0.5,0.6c0,1.8,0,3.7,0,5.5c0,0.3-0.3,0.5-0.5,0.4c-5.6-0.9-11.2-1.6-16.8-2
			c-0.3,0-0.5-0.3-0.6-0.6V18.9c0-0.3,0.2-0.5,0.5-0.5c5.5,0.4,11,1,16.4,1.9c0.3,0,0.6,0.4,0.6,0.6v5.5c0,0.3-0.3,0.5-0.6,0.4
			c-3.1-0.5-6.3-0.9-9.4-1.3v2.9c2.6,0.3,5.1,0.6,7.7,1c0.3,0,0.5,0.3,0.5,0.5c-0.2,1.7-0.3,3.3-0.5,5c0,0.2-0.3,0.4-0.6,0.4
			c-2.3-0.3-4.7-0.6-7-0.9v3.1C208.4,37.8,211.7,38.3,215,38.8"/>
	</g>
	<g>
		<path class="st1" d="M110.3,52.5h5.9v1.2h-4.5v3.6h4.1v1.2h-4.1v4.9h-1.4V52.5z"/>
		<path class="st1" d="M118.6,52.6c0.7-0.1,1.7-0.2,2.7-0.2c1.5,0,2.5,0.3,3.2,0.9c0.6,0.5,0.9,1.2,0.9,2.1c0,1.4-0.9,2.4-2.1,2.8v0
			c0.8,0.3,1.3,1.1,1.6,2.2c0.4,1.5,0.6,2.6,0.8,3h-1.5c-0.2-0.3-0.4-1.2-0.7-2.6c-0.3-1.5-0.9-2.1-2.2-2.1H120v4.7h-1.4V52.6z
			 M120,57.6h1.4c1.5,0,2.5-0.8,2.5-2.1c0-1.4-1-2-2.5-2c-0.7,0-1.2,0.1-1.4,0.1V57.6z"/>
		<path class="st1" d="M129.2,52.5v10.9h-1.4V52.5H129.2z"/>
		<path class="st1" d="M137.7,58.3h-4.2v3.9h4.7v1.2H132V52.5h5.9v1.2h-4.5v3.5h4.2V58.3z"/>
		<path class="st1" d="M140.4,63.4V52.5h1.5l3.5,5.5c0.8,1.3,1.4,2.4,2,3.6l0,0c-0.1-1.5-0.2-2.8-0.2-4.5v-4.6h1.3v10.9h-1.4
			l-3.5-5.5c-0.8-1.2-1.5-2.5-2-3.6l0,0c0.1,1.4,0.1,2.7,0.1,4.5v4.7H140.4z"/>
		<path class="st1" d="M151.5,52.6c0.9-0.1,1.9-0.2,3-0.2c2,0,3.5,0.5,4.4,1.4c1,0.9,1.5,2.2,1.5,3.9c0,1.8-0.6,3.2-1.6,4.2
			c-1,1-2.7,1.6-4.8,1.6c-1,0-1.8,0-2.6-0.1V52.6z M152.9,62.3c0.4,0.1,0.9,0.1,1.4,0.1c3,0,4.7-1.7,4.7-4.6c0-2.6-1.4-4.2-4.4-4.2
			c-0.7,0-1.3,0.1-1.7,0.1V62.3z"/>
		<path class="st1" d="M162.5,61.7c0.6,0.4,1.6,0.7,2.5,0.7c1.4,0,2.3-0.8,2.3-1.9c0-1-0.6-1.6-2.1-2.2c-1.8-0.6-2.9-1.6-2.9-3.1
			c0-1.7,1.4-3,3.5-3c1.1,0,1.9,0.3,2.4,0.5l-0.4,1.2c-0.4-0.2-1.1-0.5-2.1-0.5c-1.5,0-2.1,0.9-2.1,1.6c0,1,0.7,1.5,2.2,2.1
			c1.8,0.7,2.8,1.6,2.8,3.2c0,1.7-1.2,3.1-3.8,3.1c-1.1,0-2.2-0.3-2.8-0.7L162.5,61.7z"/>
	</g>
</g>
</svg>
